<?xml version="1.0" encoding="iso-8859-1"?>
<!-- Generator: Adobe Illustrator 18.0.0, SVG Export Plug-In . SVG Version: 6.00 Build 0)  -->
<!DOCTYPE svg PUBLIC "-//W3C//DTD SVG 1.1//EN" "http://www.w3.org/Graphics/SVG/1.1/DTD/svg11.dtd">
<svg version="1.1" id="Capa_1" xmlns="http://www.w3.org/2000/svg" xmlns:xlink="http://www.w3.org/1999/xlink" x="0px" y="0px"
	 viewBox="0 0 298.194 298.194" style="enable-background:new 0 0 298.194 298.194;" xml:space="preserve">
<g>
	<g>
		<g>
			<path style="fill:#FDBD1D;" d="M225.127,51.63c0.119,0.078,0.229,0.169,0.344,0.253C225.356,51.798,225.247,51.708,225.127,51.63
				z"/>
			<path style="fill:#FDBD1D;" d="M223.66,50.886c0.106,0.041,0.216,0.074,0.319,0.12C223.875,50.96,223.766,50.927,223.66,50.886z"
				/>
			<path style="fill:#FDBD1D;" d="M222.237,50.479c0.132,0.024,0.263,0.055,0.392,0.086
				C222.499,50.534,222.37,50.503,222.237,50.479z"/>
			<path style="fill:#FDBD1D;" d="M227.206,53.623c0.117,0.162,0.225,0.33,0.33,0.501C227.43,53.952,227.323,53.785,227.206,53.623z
				"/>
			<path style="fill:#FDBD1D;" d="M226.546,52.824c-0.118-0.125-0.243-0.241-0.369-0.358
				C226.303,52.583,226.428,52.699,226.546,52.824z"/>
			<path style="fill:#FDBD1D;" d="M213.13,60.064c-0.031-0.13-0.062-0.261-0.086-0.393C213.068,59.804,213.099,59.933,213.13,60.064
				z"/>
			<path style="fill:#FDBD1D;" d="M216.683,64.967c-0.167-0.103-0.332-0.208-0.491-0.323
				C216.352,64.759,216.516,64.863,216.683,64.967z"/>
			<path style="fill:#FDBD1D;" d="M227.867,54.734c-1.049-0.515-2.222-0.813-3.466-0.813c-4.364,0-7.915,3.55-7.915,7.913
				c0,1.245,0.298,2.418,0.812,3.466c1.064,0.533,2.247,0.861,3.517,0.861c4.363,0,7.913-3.55,7.913-7.914
				C228.728,56.98,228.4,55.798,227.867,54.734z"/>
			<path style="fill:#FDBD1D;" d="M215.032,63.612c0.117,0.126,0.232,0.25,0.357,0.368
				C215.264,63.863,215.148,63.737,215.032,63.612z"/>
			<path style="fill:#FDBD1D;" d="M213.57,61.413c-0.046-0.104-0.078-0.214-0.12-0.32C213.492,61.2,213.525,61.309,213.57,61.413z"
				/>
			<path style="fill:#FDBD1D;" d="M214.447,62.905c-0.084-0.115-0.175-0.224-0.253-0.344
				C214.273,62.681,214.363,62.79,214.447,62.905z"/>
		</g>
		<g>
			<path style="fill:#AFDC02;" d="M126.216,125.291c-0.448-0.107-0.893-0.22-1.344-0.318
				C125.323,125.071,125.768,125.184,126.216,125.291z"/>
			<path style="fill:#AFDC02;" d="M129.69,126.211c-0.466-0.137-0.932-0.275-1.402-0.402
				C128.759,125.935,129.224,126.074,129.69,126.211z"/>
			<path style="fill:#AFDC02;" d="M136.34,128.523c-0.464-0.188-0.931-0.371-1.399-0.549
				C135.409,128.152,135.876,128.334,136.34,128.523z"/>
			<path style="fill:#AFDC02;" d="M133.057,127.287c-0.469-0.163-0.939-0.325-1.412-0.478
				C132.118,126.962,132.588,127.124,133.057,127.287z"/>
			<path style="fill:#AFDC02;" d="M125.027,130.963c-2.635,0.595-5.256,1.281-7.855,2.065h-0.001h-0.001l-0.001,0
				c-2.615,0.788-5.185,1.67-7.711,2.636c-15.302,12.987-23.94,30.731-25.671,52.768c-0.475,6.046-0.34,11.625,0.035,16.322
				l97.65-29.426c-2.253-5.072-6.462-13.328-13.04-21.737c-1.325-1.694-2.692-3.297-4.082-4.852
				C152.977,138.68,139.808,132.715,125.027,130.963z"/>
			<path style="fill:#AFDC02;" d="M161.138,145.318c-0.39-0.392-0.779-0.784-1.173-1.166
				C160.359,144.534,160.748,144.927,161.138,145.318z"/>
			<path style="fill:#AFDC02;" d="M162.61,146.834c0.389,0.41,0.774,0.828,1.158,1.249
				C163.384,147.662,162.998,147.244,162.61,146.834z"/>
			<path style="fill:#AFDC02;" d="M139.543,129.917c-0.451-0.21-0.905-0.41-1.36-0.611
				C138.638,129.507,139.093,129.707,139.543,129.917z"/>
			<path style="fill:#AFDC02;" d="M158.414,142.695c-0.386-0.356-0.77-0.716-1.161-1.062
				C157.643,141.979,158.028,142.339,158.414,142.695z"/>
			<path style="fill:#AFDC02;" d="M121.394,124.301c0.386,0.064,0.766,0.146,1.15,0.217
				C122.16,124.447,121.78,124.365,121.394,124.301z"/>
			<path style="fill:#AFDC02;" d="M155.563,140.19c-0.363-0.305-0.723-0.618-1.09-0.914
				C154.84,139.572,155.2,139.885,155.563,140.19z"/>
			<path style="fill:#AFDC02;" d="M142.674,131.471c-0.428-0.226-0.861-0.439-1.292-0.656
				C141.814,131.032,142.247,131.244,142.674,131.471z"/>
			<path style="fill:#AFDC02;" d="M145.736,133.184c-0.388-0.23-0.783-0.444-1.174-0.667
				C144.953,132.74,145.348,132.954,145.736,133.184z"/>
			<path style="fill:#AFDC02;" d="M152.42,137.687c-0.266-0.2-0.526-0.412-0.794-0.608
				C151.893,137.275,152.154,137.487,152.42,137.687z"/>
			<path style="fill:#AFDC02;" d="M148.725,135.057c-0.279-0.185-0.564-0.353-0.845-0.534
				C148.161,134.703,148.446,134.872,148.725,135.057z"/>
		</g>
		<g>
			<path style="fill:#FDA6B6;" d="M195.496,133.987c0.911,0.475,1.809,0.973,2.707,1.473
				C197.305,134.96,196.407,134.462,195.496,133.987z"/>
			<path style="fill:#FDA6B6;" d="M200.66,136.855c0.898,0.529,1.784,1.077,2.667,1.631
				C202.444,137.932,201.558,137.384,200.66,136.855z"/>
			<path style="fill:#FDA6B6;" d="M190.188,131.386c0.921,0.422,1.829,0.869,2.738,1.315
				C192.017,132.255,191.109,131.808,190.188,131.386z"/>
			<path style="fill:#FDA6B6;" d="M205.674,139.986c0.879,0.581,1.748,1.179,2.611,1.784
				C207.421,141.165,206.553,140.567,205.674,139.986z"/>
			<path style="fill:#FDA6B6;" d="M184.754,129.062c0.925,0.367,1.838,0.763,2.754,1.155
				C186.592,129.825,185.679,129.43,184.754,129.062z"/>
			<path style="fill:#FDA6B6;" d="M210.523,143.375c0.858,0.632,1.705,1.28,2.546,1.937
				C212.228,144.654,211.381,144.007,210.523,143.375z"/>
			<path style="fill:#FDA6B6;" d="M219.691,150.904c0.8,0.729,1.591,1.468,2.37,2.221
				C221.281,152.372,220.49,151.633,219.691,150.904z"/>
			<path style="fill:#FDA6B6;" d="M215.199,147.015c0.831,0.682,1.652,1.375,2.463,2.081
				C216.85,148.39,216.03,147.697,215.199,147.015z"/>
			<path style="fill:#FDA6B6;" d="M226.25,157.388c-0.744-0.799-1.502-1.581-2.268-2.357
				C224.747,155.807,225.506,156.59,226.25,157.388z"/>
			<path style="fill:#FDA6B6;" d="M226.795,157.991c-19.209-17.484-44.087-28.102-70.205-29.627
				c-1.064-0.755-2.142-1.479-3.231-2.18c8.566,5.507,16.367,12.703,23.202,21.503c7.612,9.798,12.261,19.248,14.603,24.721
				l38.246-11.525C228.563,159.893,227.673,158.948,226.795,157.991z"/>
			<path style="fill:#FDA6B6;" d="M150.07,121.228c0.679,0.044,1.352,0.126,2.029,0.182
				C151.422,121.353,150.749,121.271,150.07,121.228z"/>
			<path style="fill:#FDA6B6;" d="M148.059,123.052c-1.321-0.718-2.652-1.412-4.005-2.052
				C145.407,121.64,146.738,122.335,148.059,123.052z"/>
			<path style="fill:#FDA6B6;" d="M152.119,125.418c-0.929-0.576-1.866-1.133-2.812-1.669
				C150.253,124.284,151.189,124.843,152.119,125.418z"/>
			<path style="fill:#FDA6B6;" d="M179.2,127.018c0.924,0.313,1.836,0.656,2.751,0.992
				C181.036,127.674,180.124,127.331,179.2,127.018z"/>
			<path style="fill:#FDA6B6;" d="M167.787,123.797c0.9,0.204,1.79,0.444,2.684,0.67
				C169.576,124.241,168.687,124.001,167.787,123.797z"/>
			<path style="fill:#FDA6B6;" d="M156.038,121.774c0.815,0.096,1.622,0.232,2.434,0.346
				C157.66,122.006,156.853,121.87,156.038,121.774z"/>
			<path style="fill:#FDA6B6;" d="M173.54,125.261c0.917,0.258,1.823,0.551,2.733,0.832
				C175.363,125.811,174.458,125.519,173.54,125.261z"/>
			<path style="fill:#FDA6B6;" d="M161.948,122.632c0.869,0.149,1.73,0.338,2.594,0.507
				C163.678,122.97,162.818,122.782,161.948,122.632z"/>
		</g>
		<g>
			<path style="fill:#FDA6B6;" d="M75.641,146.697c0.208-0.421,0.396-0.855,0.611-1.272
				C76.038,145.842,75.849,146.276,75.641,146.697z"/>
			<path style="fill:#FDA6B6;" d="M66.579,180.83c0.533-7.096,1.774-13.855,3.653-20.251c-0.053,0.18-0.119,0.352-0.171,0.533
				c-15.633,15.469-26.716,35.328-31.408,57.254l29.415-8.864C66.994,203.648,65.648,193.201,66.579,180.83z"/>
			<path style="fill:#FDA6B6;" d="M73.354,151.75c0.201-0.485,0.385-0.98,0.595-1.46C73.74,150.77,73.555,151.265,73.354,151.75z"/>
			<path style="fill:#FDA6B6;" d="M71.413,156.901c0.176-0.515,0.34-1.037,0.525-1.546
				C71.753,155.864,71.588,156.385,71.413,156.901z"/>
		</g>
		<path style="fill:#B74B00;" d="M243.404,288.154h-78.669l-27.402-89.038l102.09-30.764c1.569-0.473,2.81-1.683,3.321-3.24
			c0.511-1.558,0.23-3.267-0.753-4.578c-23.284-31.051-60.332-49.589-99.103-49.589c-8.603,0-17.187,0.91-25.632,2.701
			c-1.149,0.311-4.289,0.983-5.32,1.249l-1.324-4.388c-0.801-2.654-3.604-4.154-6.257-3.356c-2.654,0.801-4.157,3.602-3.357,6.256
			l1.322,4.383c-1.004,0.347-3.427,1.186-5.12,1.897c-20.614,8.135-38.51,21.526-52.183,39.153
			c-15.472,19.946-24.42,43.753-25.877,68.849c-0.095,1.637,0.615,3.217,1.902,4.232c0.896,0.707,1.995,1.079,3.11,1.079
			c0.486,0,0.973-0.07,1.449-0.214l102.118-30.773l26.511,86.141H86.781c-2.773,0-5.02,2.247-5.02,5.02s2.247,5.02,5.02,5.02
			h156.623c2.773,0,5.02-2.247,5.02-5.02S246.177,288.154,243.404,288.154z M109.999,125.856L109.999,125.856
			c0.001,0,0.001,0,0.002,0c2.6-0.784,5.221-1.469,7.855-2.065c19.942,2.363,36.954,12.381,50.578,29.799
			c6.578,8.409,10.786,16.665,13.04,21.737L77.758,206.582c-0.924-5.472-1.978-14.679-1.142-25.322
			c1.731-22.036,10.369-39.781,25.671-52.768C104.813,127.527,107.383,126.645,109.999,125.856L109.999,125.856z M229.41,160.882
			l-38.246,11.525c-2.341-5.473-6.99-14.923-14.603-24.722c-9.238-11.891-20.231-20.875-32.507-26.686
			C176.831,121.342,208.164,136.071,229.41,160.882z M78.833,140.78c-6.965,11.592-11.13,25.101-12.254,40.05
			c-0.931,12.372,0.415,22.818,1.488,28.673L29.82,221.028C33.856,188.191,52.114,159.029,78.833,140.78z"/>
		<path style="fill:#B74B00;" d="M167.584,63.269h24.083c2.773,0,5.02-2.247,5.02-5.02c0-2.773-2.247-5.02-5.02-5.02h-24.083
			c-2.773,0-5.02,2.247-5.02,5.02C162.563,61.021,164.811,63.269,167.584,63.269z"/>
		<path style="fill:#B74B00;" d="M274.041,53.228h-24.081c-2.773,0-5.02,2.247-5.02,5.02c0,2.773,2.247,5.02,5.02,5.02h24.081
			c2.773,0,5.02-2.247,5.02-5.02C279.061,55.476,276.814,53.228,274.041,53.228z"/>
		<path style="fill:#B74B00;" d="M245.29,75.628c-1.961-1.96-5.139-1.96-7.1,0c-1.96,1.96-1.96,5.139,0,7.099l8.216,8.217
			c0.981,0.98,2.266,1.47,3.55,1.47c1.284,0,2.57-0.49,3.55-1.47c1.96-1.96,1.96-5.139,0-7.1L245.29,75.628z"/>
		<path style="fill:#B74B00;" d="M215.792,88.617v22.861c0,2.773,2.248,5.02,5.02,5.02c2.773,0,5.02-2.248,5.02-5.02V88.617
			c0-2.773-2.247-5.02-5.02-5.02C218.04,83.597,215.792,85.845,215.792,88.617z"/>
		<path style="fill:#B74B00;" d="M196.334,75.628l-8.215,8.216c-1.96,1.96-1.96,5.139,0.001,7.1c0.98,0.981,2.265,1.47,3.549,1.47
			c1.284,0,2.57-0.49,3.55-1.47l8.215-8.217c1.96-1.96,1.96-5.139-0.001-7.1C201.474,73.667,198.295,73.667,196.334,75.628z"/>
		<path style="fill:#B74B00;" d="M220.815,76.203c9.9,0,17.953-8.054,17.953-17.954s-8.054-17.954-17.953-17.954
			c-9.9,0-17.955,8.054-17.955,17.954S210.914,76.203,220.815,76.203z M220.815,50.335c4.363,0,7.913,3.55,7.913,7.914
			c0,4.364-3.549,7.913-7.913,7.913c-4.364,0-7.915-3.549-7.915-7.913C212.9,53.885,216.451,50.335,220.815,50.335z"/>
		<path style="fill:#B74B00;" d="M196.335,40.871c0.98,0.981,2.265,1.47,3.549,1.47s2.57-0.49,3.55-1.47
			c1.96-1.961,1.96-5.139-0.001-7.1l-8.215-8.215c-1.96-1.961-5.139-1.96-7.1,0c-1.96,1.96-1.96,5.139,0.001,7.1L196.335,40.871z"/>
		<path style="fill:#B74B00;" d="M220.813,32.901c2.773,0,5.02-2.247,5.02-5.02V5.02c0-2.773-2.247-5.02-5.02-5.02
			c-2.773,0-5.02,2.247-5.02,5.02v22.861C215.792,30.654,218.04,32.901,220.813,32.901z"/>
		<path style="fill:#B74B00;" d="M241.74,42.341c1.284,0,2.57-0.49,3.549-1.47l8.216-8.215c1.961-1.96,1.961-5.139,0.001-7.1
			c-1.96-1.96-5.139-1.961-7.1-0.001l-8.216,8.215c-1.961,1.96-1.961,5.139-0.001,7.1C239.171,41.85,240.455,42.341,241.74,42.341z"
			/>
	</g>
</g>
<g>
</g>
<g>
</g>
<g>
</g>
<g>
</g>
<g>
</g>
<g>
</g>
<g>
</g>
<g>
</g>
<g>
</g>
<g>
</g>
<g>
</g>
<g>
</g>
<g>
</g>
<g>
</g>
<g>
</g>
</svg>
